<?xml version="1.0" encoding="iso-8859-1"?>
<!-- Generator: Adobe Illustrator 19.0.0, SVG Export Plug-In . SVG Version: 6.00 Build 0)  -->
<svg version="1.1" id="Layer_1" xmlns="http://www.w3.org/2000/svg" xmlns:xlink="http://www.w3.org/1999/xlink" x="0px" y="0px"
	 viewBox="0 0 511.999 511.999" style="enable-background:new 0 0 511.999 511.999;" xml:space="preserve">
<path style="fill:#524E4D;" d="M392.099,140.802l-264.26,152.57c-11.31,6.53-15.223,21.127-8.692,32.439l41.386,71.682h23.746
	l-1.253,38.961l20.419,35.369c6.53,11.31,21.127,15.221,32.439,8.691l264.26-152.57c11.31-6.53,15.221-21.127,8.691-32.439
	l-20.419-35.369H464.67l1.253-38.961l-41.386-71.682C418.007,138.184,403.409,134.272,392.099,140.802z"/>
<rect x="301.981" y="152.512" transform="matrix(0.5 0.866 -0.866 0.5 446.9995 -116.5875)" style="fill:#181818;" width="44.977" height="352.625"/>
<path style="fill:#BEC8D6;" d="M328.886,28.323H23.746C10.686,28.323,0,39.009,0,52.069v168.599
	c0,13.06,10.686,23.746,23.746,23.746h305.14c13.06,0,23.746-10.686,23.746-23.746V52.069
	C352.633,39.009,341.947,28.323,328.886,28.323z"/>
<g>
	<path style="fill:#181818;" d="M305.14,209.42h-58.883c-6.558,0-11.873-5.317-11.873-11.873c0-6.556,5.316-11.873,11.873-11.873
		h58.883c6.558,0,11.873,5.317,11.873,11.873C317.013,204.104,311.698,209.42,305.14,209.42z"/>
	<path style="fill:#181818;" d="M205.757,209.42h-58.883c-6.558,0-11.873-5.317-11.873-11.873c0-6.556,5.316-11.873,11.873-11.873
		h58.883c6.558,0,11.873,5.317,11.873,11.873C217.63,204.104,212.315,209.42,205.757,209.42z"/>
	<path style="fill:#181818;" d="M106.375,209.42H47.493c-6.558,0-11.873-5.317-11.873-11.873c0-6.556,5.316-11.873,11.873-11.873
		h58.883c6.558,0,11.873,5.317,11.873,11.873C118.248,204.104,112.933,209.42,106.375,209.42z"/>
</g>
<path style="fill:#EE3840;" d="M121.941,126.308c0,13.06-10.686,23.746-23.746,23.746H71.239c-13.06,0-23.746-10.686-23.746-23.746
	V99.353c0-13.06,10.686-23.746,23.746-23.746h26.956c13.06,0,23.746,10.686,23.746,23.746V126.308z"/>
<g>
</g>
<g>
</g>
<g>
</g>
<g>
</g>
<g>
</g>
<g>
</g>
<g>
</g>
<g>
</g>
<g>
</g>
<g>
</g>
<g>
</g>
<g>
</g>
<g>
</g>
<g>
</g>
<g>
</g>
</svg>
