<?xml version="1.0" encoding="UTF-8" standalone="no"?> <svg xmlns="http://www.w3.org/2000/svg" viewBox="0 0 64 64"><defs><style>.cls-1{fill:#ff927d;}.cls-1,.cls-2,.cls-3,.cls-5{stroke:#54596e;stroke-linecap:round;stroke-linejoin:round;stroke-width:2px;}.cls-2{fill:#fff;}.cls-3,.cls-5{fill:none;}.cls-4{fill:#55a6ff;}.cls-5{fill-rule:evenodd;}</style></defs><title>crab</title><g id="crab"><path class="cls-1" d="M51.8,43.8a19.8,19.8,0,0,0-39.6,0C12.2,54.74,21.06,57,32,57S51.8,54.74,51.8,43.8Z"/><circle class="cls-2" cx="25" cy="38" r="6"/><circle class="cls-2" cx="39" cy="38" r="6"/><path class="cls-3" d="M1,44a13.71,13.71,0,0,1,11.09-3.77"/><path class="cls-3" d="M1.66,51.32a13.71,13.71,0,0,1,9.79-6.42"/><path class="cls-3" d="M4.86,57.64a13.71,13.71,0,0,1,7.42-9.06"/><path class="cls-3" d="M63.28,44a13.71,13.71,0,0,0-11.09-3.77"/><path class="cls-3" d="M62.62,51.32a13.71,13.71,0,0,0-9.79-6.42"/><path class="cls-3" d="M59.42,57.64A13.71,13.71,0,0,0,52,48.58"/><circle class="cls-4" cx="25" cy="38" r="2"/><circle class="cls-4" cx="39" cy="38" r="2"/><path class="cls-1" d="M14,17,19,6.26c-3.34-1.63-8.2.86-11,5.74S5.4,22.66,8.75,24.59,17.16,24,20.06,19a14.63,14.63,0,0,0,1.81-5Z"/><path class="cls-3" d="M9.22,25.25S3.06,31,16,32"/><path class="cls-1" d="M49.85,17l-5-10.74c3.34-1.63,8.2.86,11,5.74s2.54,10.66-.81,12.59S46.69,24,43.79,19A14.63,14.63,0,0,1,42,14Z"/><path class="cls-3" d="M55.63,25.25S61.79,31,48.82,32"/><path class="cls-5" d="M21.57,47A13.26,13.26,0,0,0,43,47"/></g></svg>