<?xml version="1.0" encoding="iso-8859-1"?>
<!-- Generator: Adobe Illustrator 19.0.0, SVG Export Plug-In . SVG Version: 6.00 Build 0)  -->
<svg version="1.1" id="Capa_1" xmlns="http://www.w3.org/2000/svg" xmlns:xlink="http://www.w3.org/1999/xlink" x="0px" y="0px"
	 viewBox="0 0 490.667 490.667" style="enable-background:new 0 0 490.667 490.667;" xml:space="preserve">
<path style="fill:#607D8B;" d="M480,320H341.333V170.667H480c5.891,0,10.667-4.776,10.667-10.667s-4.776-10.667-10.667-10.667
	H341.333V10.667C341.333,4.776,336.558,0,330.667,0C324.776,0,320,4.776,320,10.667v138.667H170.667V10.667
	C170.667,4.776,165.891,0,160,0s-10.667,4.776-10.667,10.667v138.667H10.667C4.776,149.333,0,154.109,0,160
	s4.776,10.667,10.667,10.667h138.667V320H10.667C4.776,320,0,324.776,0,330.667c0,5.891,4.776,10.667,10.667,10.667h138.667V480
	c0,5.891,4.776,10.667,10.667,10.667s10.667-4.776,10.667-10.667V341.333H320V480c0,5.891,4.776,10.667,10.667,10.667
	c5.891,0,10.667-4.776,10.667-10.667V341.333H480c5.891,0,10.667-4.776,10.667-10.667C490.667,324.776,485.891,320,480,320z
	 M170.667,320V170.667H320V320H170.667z"/>
<g>
	<circle style="fill:#FFC107;" cx="74.667" cy="74.667" r="53.333"/>
	<circle style="fill:#FFC107;" cx="416" cy="245.333" r="53.333"/>
	<circle style="fill:#FFC107;" cx="245.333" cy="416" r="53.333"/>
</g>
<g>
	<path style="fill:#009688;" d="M295.552,195.115c-4.165-4.164-10.917-4.164-15.083,0l-35.136,35.136l-35.115-35.136
		c-4.237-4.092-10.99-3.975-15.083,0.262c-3.992,4.134-3.992,10.687,0,14.82l35.115,35.136l-35.136,35.115
		c-4.237,4.092-4.355,10.845-0.262,15.083c4.092,4.237,10.845,4.355,15.083,0.262c0.089-0.086,0.176-0.173,0.262-0.262
		l35.136-35.115l35.115,35.115c4.237,4.092,10.99,3.975,15.083-0.262c3.992-4.134,3.992-10.687,0-14.82l-35.115-35.115
		l35.115-35.115c4.177-4.154,4.195-10.908,0.04-15.085C295.565,195.127,295.558,195.121,295.552,195.115z"/>
	<path style="fill:#009688;" d="M124.885,365.781c-4.165-4.164-10.917-4.164-15.083,0l-35.136,35.136l-35.115-35.136
		c-4.237-4.093-10.99-3.976-15.083,0.262c-3.993,4.134-3.993,10.687,0,14.821L59.584,416l-35.136,35.115
		c-4.237,4.093-4.354,10.845-0.262,15.083s10.845,4.354,15.083,0.262c0.089-0.086,0.176-0.173,0.262-0.262l35.136-35.115
		l35.115,35.115c4.093,4.237,10.845,4.354,15.083,0.262c4.237-4.093,4.354-10.845,0.262-15.083
		c-0.086-0.089-0.173-0.176-0.262-0.262L89.749,416l35.115-35.115c4.177-4.154,4.195-10.908,0.04-15.085
		C124.898,365.794,124.892,365.788,124.885,365.781z"/>
	<path style="fill:#009688;" d="M431.083,74.667l35.115-35.115c4.237-4.093,4.354-10.845,0.262-15.083
		c-4.093-4.237-10.845-4.354-15.083-0.262c-0.089,0.086-0.176,0.173-0.262,0.262L416,59.584l-35.115-35.136
		c-4.237-4.093-10.99-3.976-15.083,0.262c-3.993,4.134-3.993,10.687,0,14.821l35.115,35.136l-35.136,35.115
		c-4.237,4.093-4.354,10.845-0.262,15.083c4.093,4.237,10.845,4.354,15.083,0.262c0.089-0.086,0.176-0.173,0.262-0.262L416,89.749
		l35.115,35.115c4.093,4.237,10.845,4.355,15.083,0.262c4.237-4.093,4.354-10.845,0.262-15.083
		c-0.086-0.089-0.173-0.176-0.262-0.262L431.083,74.667z"/>
</g>
<path d="M480,170.667H10.667C4.776,170.667,0,165.891,0,160s4.776-10.667,10.667-10.667H480c5.891,0,10.667,4.776,10.667,10.667
	S485.891,170.667,480,170.667z"/>
<path d="M480,341.333H10.667C4.776,341.333,0,336.558,0,330.667C0,324.776,4.776,320,10.667,320H480
	c5.891,0,10.667,4.776,10.667,10.667C490.667,336.558,485.891,341.333,480,341.333z"/>
<path d="M160,490.667c-5.891,0-10.667-4.776-10.667-10.667V10.667C149.333,4.776,154.109,0,160,0s10.667,4.776,10.667,10.667V480
	C170.667,485.891,165.891,490.667,160,490.667z"/>
<path d="M330.667,490.667c-5.891,0-10.667-4.776-10.667-10.667V10.667C320,4.776,324.776,0,330.667,0
	c5.891,0,10.667,4.776,10.667,10.667V480C341.333,485.891,336.558,490.667,330.667,490.667z"/>
<path d="M74.667,128c-29.455,0-53.333-23.878-53.333-53.333s23.878-53.333,53.333-53.333S128,45.211,128,74.667
	S104.122,128,74.667,128z M74.667,42.667c-17.673,0-32,14.327-32,32s14.327,32,32,32s32-14.327,32-32S92.34,42.667,74.667,42.667z"
	/>
<path d="M416,298.667c-29.455,0-53.333-23.878-53.333-53.333S386.545,192,416,192s53.333,23.878,53.333,53.333
	S445.455,298.667,416,298.667z M416,213.333c-17.673,0-32,14.327-32,32s14.327,32,32,32s32-14.327,32-32
	S433.673,213.333,416,213.333z"/>
<path d="M245.333,469.333C215.878,469.333,192,445.455,192,416s23.878-53.333,53.333-53.333s53.333,23.878,53.333,53.333
	S274.789,469.333,245.333,469.333z M245.333,384c-17.673,0-32,14.327-32,32s14.327,32,32,32s32-14.327,32-32
	S263.006,384,245.333,384z"/>
<path d="M202.667,298.667c-5.891,0.011-10.675-4.757-10.686-10.648c-0.005-2.84,1.123-5.565,3.134-7.571l85.333-85.333
	c4.237-4.092,10.99-3.975,15.083,0.262c3.992,4.134,3.992,10.687,0,14.82l-85.333,85.333
	C208.202,297.533,205.493,298.66,202.667,298.667z"/>
<path d="M288,298.667c-2.831,0.005-5.548-1.115-7.552-3.115l-85.333-85.333c-4.092-4.237-3.975-10.99,0.262-15.083
	c4.134-3.992,10.687-3.992,14.82,0l85.333,85.333c4.159,4.172,4.149,10.926-0.024,15.085
	C293.513,297.542,290.815,298.66,288,298.667z"/>
<path d="M117.333,469.333c-2.831,0.005-5.548-1.115-7.552-3.115l-85.333-85.333c-4.093-4.237-3.976-10.99,0.262-15.083
	c4.134-3.993,10.687-3.993,14.821,0l85.333,85.333c4.159,4.172,4.149,10.926-0.024,15.085
	C122.847,468.208,120.148,469.327,117.333,469.333z"/>
<path d="M32,469.333c-5.891,0.011-10.675-4.757-10.686-10.648c-0.005-2.84,1.123-5.565,3.134-7.571l85.333-85.333
	c4.237-4.093,10.99-3.975,15.083,0.262c3.993,4.134,3.993,10.687,0,14.821l-85.333,85.333C37.535,468.199,34.827,469.327,32,469.333
	z"/>
<path d="M373.333,128c-5.891,0.011-10.675-4.757-10.686-10.648c-0.005-2.84,1.123-5.565,3.134-7.571l85.333-85.333
	c4.093-4.237,10.845-4.354,15.083-0.262s4.354,10.845,0.262,15.083c-0.086,0.089-0.173,0.176-0.262,0.262l-85.333,85.333
	C378.868,126.866,376.16,127.994,373.333,128z"/>
<path d="M458.667,128c-2.831,0.005-5.548-1.115-7.552-3.115l-85.333-85.333c-4.093-4.237-3.976-10.99,0.262-15.083
	c4.134-3.993,10.687-3.993,14.821,0l85.333,85.333c4.159,4.172,4.149,10.926-0.024,15.085
	C464.18,126.875,461.482,127.994,458.667,128z"/>
<g>
</g>
<g>
</g>
<g>
</g>
<g>
</g>
<g>
</g>
<g>
</g>
<g>
</g>
<g>
</g>
<g>
</g>
<g>
</g>
<g>
</g>
<g>
</g>
<g>
</g>
<g>
</g>
<g>
</g>
</svg>
