<?xml version="1.0" encoding="iso-8859-1"?>
<!-- Generator: Adobe Illustrator 19.0.0, SVG Export Plug-In . SVG Version: 6.00 Build 0)  -->
<svg version="1.1" id="Capa_1" xmlns="http://www.w3.org/2000/svg" xmlns:xlink="http://www.w3.org/1999/xlink" x="0px" y="0px"
	 viewBox="0 0 502.4 502.4" style="enable-background:new 0 0 502.4 502.4;" xml:space="preserve">
<g>
	<path style="fill:#ED664C;" d="M492.9,326.7v55.4c0,19-50.6,34.6-112.3,34.6S269,401.5,269,382.5l-0.1-6.2l-0.6-43.8
		c9.1,16.2,54.9,28.5,110,28.5c61.7,0,113-15.4,113-34.4h1.6V326.7z"/>
	<path style="fill:#ED664C;" d="M492.9,272.2v54.5h-1.5c0,19-51.3,34.4-113,34.4c-55.1,0-101-12.3-110-28.5l-0.2-11.9l-0.6-45.2
		c6.8,17,53.8,30.1,110.8,30.1c60.8,0,112-15,113.3-33.6L492.9,272.2z"/>
</g>
<path style="fill:#FDC75B;" d="M267.6,275.6c-0.6-1.4-0.9-2.8-0.9-4.3c0-1.2,0.2-2.4,0.6-3.5c5.7-17.3,52.8-30.8,110.4-30.9
	c0.3,0,0.5,0,0.8,0c61.7,0,113.4,15.4,113.4,34.4c0,0.3,0,0.5-0.1,0.8c-1.4,18.7-52.5,33.6-113.3,33.6
	C321.4,305.7,274.4,292.5,267.6,275.6z"/>
<g>
	<path style="fill:#ED664C;" d="M377.6,235.5v1.4c-57.5,0.1-104.6,13.6-110.4,30.9l-4.8-2.4c-11.4,0-22.3-0.5-32.6-1.5l-2.7,0.5
		c-5-24.3-18-45.6-36.1-61.1l0.9-1c19.2,4.8,43.8,7.8,70.5,7.8c61.7,0,113.4-15.5,113.4-34.5h1.7v59.9H377.6z"/>
	<path style="fill:#ED664C;" d="M377.6,120.2v55.3h-1.7c0,19-51.7,34.5-113.4,34.5c-26.8,0-51.3-2.9-70.5-7.8l-0.9,1
		c-11.2-9.7-24.4-17.1-38.9-21.6l0.3-1l-1.4-58.3c3.8,18,52.2,32.2,111.5,32.2C324.3,154.5,376,139,376,120L377.6,120.2z"/>
</g>
<path style="fill:#FDC75B;" d="M262.5,85.6c61.7,0,113.4,15.5,113.4,34.4c0,19-51.7,34.5-113.4,34.5c-59.2,0-107.6-14.2-111.5-32.2
	c-0.2-0.8-0.3-1.5-0.3-2.3C150.7,101.1,200.7,85.6,262.5,85.6z"/>
<g>
	<path style="fill:#ED664C;" d="M268.3,332.6l0.6,43.8l-5.6,0.1c-26.3,0-49.6-2.7-68.5-7.4l-1.4-1.4c14.3-13,25.1-29.7,31-48.6h2.7
		c11.1,1.2,23,1.7,35.3,1.7l5.7-0.1L268.3,332.6z"/>
	<path style="fill:#ED664C;" d="M267.6,275.6l0.6,45.2l-5.7,0.1c-12.4,0-24.2-0.6-35.3-1.7h-2.8c3.2-10.3,4.9-21.2,4.9-32.6
		c0-7.6-0.8-15-2.2-22.1l2.7-0.5c10.3,1,21.3,1.5,32.6,1.5l4.8,2.4c-0.4,1.2-0.6,2.3-0.6,3.5C266.6,272.7,267,274.2,267.6,275.6z"/>
</g>
<path style="fill:#FDC75B;" d="M227.1,264.4c1.4,7.1,2.2,14.5,2.2,22.1c0,11.4-1.7,22.3-4.9,32.6c-5.9,18.9-16.7,35.6-31,48.6
	c-19.5,17.7-45.4,28.6-73.8,28.6C59,396.3,9.9,347.1,9.9,286.6s49.2-109.7,109.7-109.7c11.3,0,22.2,1.7,32.5,4.9
	c14.5,4.5,27.7,11.9,38.9,21.6C209.2,218.7,222.2,240.1,227.1,264.4z M175.7,286.5c0-30.9-25.1-56-56-56c-31,0-56,25.1-56,56
	c0,31,25,56,56,56C150.6,342.5,175.7,317.4,175.7,286.5z"/>
<circle style="fill:#ED664C;" cx="119.7" cy="286.5" r="56"/>
<path d="M461,237.3c-20.2-6.1-45.6-9.7-73.6-10.4V120.2c0-2.7-1-5.2-2.7-7c-3.7-11.2-17-20.3-39.5-27.1
	c-22.5-6.8-51.8-10.5-82.7-10.5c-30.8,0-59.9,3.7-81.9,10.5c-18.1,5.6-39.8,16-39.8,33.9c0,1.3,0.1,2.4,0.3,3.3l1.1,45.6
	c-7.4-1.4-14.9-2.1-22.5-2.1C53.7,166.8,0,220.5,0,286.5s53.7,119.7,119.7,119.7c27.6,0,54.1-9.5,75.4-26.8
	c18.8,4.4,40.9,6.8,64.3,7c5.1,27.7,65.2,40.4,121.2,40.4c30.8,0,59.8-3.8,82-10.7c18.3-5.6,39.8-16.1,39.8-34V272.2
	c0-2-0.4-3.8-1.4-5.4C498.4,254.5,485.1,244.6,461,237.3z M278.3,329.4l-0.4-31.6c23.6,12.3,63.3,17.9,100.5,17.9
	c30.4,0,59.3-3.6,81.6-10.2c9-2.7,16.5-5.7,22.5-9.1v25c0,1.5-1.3,3.3-1.3,5.3c0,1.4-4.6,8.2-26.1,14.8c-20.5,6.2-47.7,9.6-76.7,9.6
	C324,351.1,286.9,339,278.3,329.4z M162.3,174.6l-0.7-28.2c5.9,3.1,13.1,5.9,21.6,8.3c21.7,6.3,49.8,9.7,79.3,9.7
	c30.9,0,60.2-3.7,82.6-10.5c8.9-2.7,16.3-5.8,22.3-9.2v25c-1,1.6-1.6,3.5-1.6,5.6c0,1.3-4.7,8.2-26.4,14.8
	c-20.3,6.2-48.4,9.7-76.9,9.7c-24.7,0-48.9-2.6-68.1-7.5c-0.3-0.1-0.6-0.1-0.8-0.2C184,184.9,173.6,178.9,162.3,174.6z M262.5,220
	c30.9,0,60.2-3.7,82.6-10.5c8.9-2.7,16.3-5.8,22.3-9.2V227c-25,0.7-48.5,3.9-67.2,9.2c-17.7,5-30,11.4-37,19.2c-0.3,0-0.5,0-0.8,0
	c-9.7,0-18.9-0.4-27.5-1.1c-3.7-13.3-9.8-26-17.8-37.2C231.4,219,246.6,220,262.5,220z M238.8,274.6c5.9,0.4,12,0.6,18.3,0.7
	c0.1,0.7,0.3,1.4,0.5,2.1l0.4,33.3c-7.2-0.1-14.3-0.4-21-0.9c1.5-7.7,2.3-15.5,2.3-23.4C239.3,282.5,239.1,278.6,238.8,274.6z
	 M231.4,329.5c8.6,0.7,17.6,1.2,26.9,1.3c-0.2,1.1-0.2,2.3,0,3.5l0.4,32.2c-16.6-0.2-32.4-1.6-46.6-4
	C220.3,352.5,226.8,341.4,231.4,329.5z M481.7,271.2v0.1c-0.1,1.5-5,8.4-27.2,15c-20.5,6.1-47.6,9.4-76.1,9.4c-26.5,0-52-3-71.6-8.3
	c-18.8-5.1-26.9-11-29.3-14.4c-0.1-0.9-0.2-1.8-0.5-2.7c1.7-3.1,9.2-9.2,28.7-14.6c19.6-5.5,45.1-8.5,71.9-8.5h0.8
	c28.6,0,56.6,3.3,76.9,9.5C476.3,263,481.4,269.5,481.7,271.2z M186.2,105.3c20.2-6.2,47.3-9.7,76.1-9.7c28.5,0,56.6,3.5,77,9.7
	c21.8,6.6,26.5,13.4,26.5,14.8c0,1.3-4.7,8.2-26.5,14.8c-20.3,6.2-48.4,9.7-76.9,9.7c-27.6,0-53.8-3.2-73.7-9
	c-21.5-6.2-27.6-13.1-28.1-15.3c0-0.2-0.2-0.3-0.2-0.3l0,0C160.4,117.9,167.1,111.2,186.2,105.3z M186.7,360.2
	c-18.4,16.7-42.2,26-67.1,26c-55,0-99.7-44.7-99.7-99.7s44.7-99.7,99.7-99.7c10,0,19.9,1.5,29.5,4.4c13.1,4.1,25,10.7,35.4,19.7
	c16.7,14.3,28.4,34,32.8,55.5c1.3,6.7,2,13.5,2,20.1c0,10.1-1.5,20.1-4.5,29.6C209.6,333,199.9,348.2,186.7,360.2z M456.7,397
	c-20.4,6.3-47.4,9.8-76.2,9.8c-28.9,0-55.8-3.4-75.9-9.5c-19.1-5.9-25.5-12.5-25.5-14.7c0-0.1,0-0.1,0-0.2l-0.1-6.1l-0.3-22.6
	c6.8,3.4,15.1,6.4,24.9,9c21,5.5,47.5,8.5,74.8,8.5c30.9,0,59.9-3.7,82.3-10.5c7.3-2.2,15.7-5.2,21.7-9.1v30.6
	C482.4,383.5,478,390.4,456.7,397z"/>
<path d="M119.7,220.4c-36.4,0-66,29.6-66,66s29.6,66,66,66s66-29.6,66-66S156.1,220.4,119.7,220.4z M119.7,332.5
	c-25.4,0-46-20.6-46-46s20.6-46,46-46s46,20.6,46,46S145,332.5,119.7,332.5z"/>
<g>
</g>
<g>
</g>
<g>
</g>
<g>
</g>
<g>
</g>
<g>
</g>
<g>
</g>
<g>
</g>
<g>
</g>
<g>
</g>
<g>
</g>
<g>
</g>
<g>
</g>
<g>
</g>
<g>
</g>
</svg>
