<svg xmlns="http://www.w3.org/2000/svg"  viewBox="0 0 60 60">
  <g fill="none" fill-rule="evenodd" transform="translate(4 4)">
    <circle cx="22" cy="22" r="22" fill="#4F676D" stroke="#4F676D" stroke-linecap="round" stroke-linejoin="round" stroke-width="2"/>
    <path fill="#49A25A" stroke="#49A25A" stroke-linecap="round" stroke-linejoin="round" stroke-width="2" d="M9.3387577 24.2668973L8.65350109 29.6012384 12.2329167 34.1274555 11.9171656 37.7746288 15.8064599 34.0931249 19.2584909 29.0682108C19.2584909 29.0682108 15.4699298 26.0136919 15.1166861 25.933286 14.7634424 25.8528802 12.7876267 23.7785899 12.7876267 23.7785899L9.3387577 24.2668973zM35.8537168 16.2335396L29.1931309 17.6677451 27.9856879 15.9358572 24.7974604 20.2569942C24.7974604 20.2569942 24.0891661 24.3129726 25.1470903 24.5740657 26.2050145 24.8351589 29.4772617 25.2493846 29.4772617 25.2493846L30.6237226 31.109074 31.8822097 35.1786039 36.5484595 31.4600591 38.2988678 24.7217776 39.9625462 17.0461808 35.0239103 7.5167321 30.0157099 6.32690618 25.8779705 11.6111065 35.8537168 16.2335396z"/>
    <polygon fill="#49A25A" stroke="#49A25A" stroke-linecap="round" stroke-linejoin="round" stroke-width="2" points="21.632 6.895 19.014 8.799 16.468 4.076 22.102 3.218"/>
    <path fill="#E06C3E" d="M30.4905515,44.8765769 L20.1517323,44.8765769 C20.1517323,44.8765769 15.1270139,40.5301913 15.1270139,40.8219054 C15.1270139,41.1136195 20.1517323,50.0290376 20.1517323,50.0290376 L49.7124667,50.0290376 C50.8168956,50.0290376 51.710554,49.1305494 51.710554,48.0222081 L51.710554,46.8834064 C51.710554,45.7740671 50.8159798,44.8765769 49.7124667,44.8765769 L37.6768782,44.8765769 L24.0160778,36.5038283 L20.7957899,36.5038283 L30.4905515,44.8765769 Z" transform="rotate(-15 33.419 43.266)"/>
    <polygon fill="#49A25A" stroke="#49A25A" stroke-linecap="round" stroke-linejoin="round" stroke-width="2" points="15.044 10.319 8.514 16.45 5.37 17.463 6.939 22.501 3.635 14.958 12.443 5.168"/>
  </g>
</svg>
